<svg width="24" height="25" viewBox="0 0 24 25" fill="none" xmlns="http://www.w3.org/2000/svg">
<mask id="mask0_2011_58456" style="mask-type:alpha" maskUnits="userSpaceOnUse" x="0" y="0" width="24" height="25">
<rect y="0.833008" width="24" height="24" fill="#D9D9D9"/>
</mask>
<g mask="url(#mask0_2011_58456)">
<path d="M10 7.83301H17C17.2833 7.83301 17.5208 7.92884 17.7125 8.12051C17.9042 8.31217 18 8.54967 18 8.83301C18 9.11634 17.9042 9.35384 17.7125 9.54551C17.5208 9.73717 17.2833 9.83301 17 9.83301H10C9.71667 9.83301 9.47917 9.73717 9.2875 9.54551C9.09583 9.35384 9 9.11634 9 8.83301C9 8.54967 9.09583 8.31217 9.2875 8.12051C9.47917 7.92884 9.71667 7.83301 10 7.83301ZM10 10.833H17C17.2833 10.833 17.5208 10.9288 17.7125 11.1205C17.9042 11.3122 18 11.5497 18 11.833C18 12.1163 17.9042 12.3538 17.7125 12.5455C17.5208 12.7372 17.2833 12.833 17 12.833H10C9.71667 12.833 9.47917 12.7372 9.2875 12.5455C9.09583 12.3538 9 12.1163 9 11.833C9 11.5497 9.09583 11.3122 9.2875 11.1205C9.47917 10.9288 9.71667 10.833 10 10.833ZM6 22.833C5.16667 22.833 4.45833 22.5413 3.875 21.958C3.29167 21.3747 3 20.6663 3 19.833V17.833C3 17.5497 3.09583 17.3122 3.2875 17.1205C3.47917 16.9288 3.71667 16.833 4 16.833H6V4.83301C6 4.28301 6.19583 3.81217 6.5875 3.42051C6.97917 3.02884 7.45 2.83301 8 2.83301H19C19.55 2.83301 20.0208 3.02884 20.4125 3.42051C20.8042 3.81217 21 4.28301 21 4.83301V10.833C21 11.1163 20.9042 11.3538 20.7125 11.5455C20.5208 11.7372 20.2833 11.833 20 11.833C19.7167 11.833 19.4792 11.7372 19.2875 11.5455C19.0958 11.3538 19 11.1163 19 10.833V4.83301H8V16.833H11C11.2833 16.833 11.5208 16.9288 11.7125 17.1205C11.9042 17.3122 12 17.5497 12 17.833C12 18.1163 11.9042 18.3538 11.7125 18.5455C11.5208 18.7372 11.2833 18.833 11 18.833H5V19.833C5 20.1163 5.09583 20.3538 5.2875 20.5455C5.47917 20.7372 5.71667 20.833 6 20.833H11C11.2833 20.833 11.5208 20.9288 11.7125 21.1205C11.9042 21.3122 12 21.5497 12 21.833C12 22.1163 11.9042 22.3538 11.7125 22.5455C11.5208 22.7372 11.2833 22.833 11 22.833H6ZM14 21.833V20.183C14 20.0497 14.025 19.9205 14.075 19.7955C14.125 19.6705 14.2 19.558 14.3 19.458L19.525 14.258C19.675 14.108 19.8417 13.9997 20.025 13.933C20.2083 13.8663 20.3917 13.833 20.575 13.833C20.775 13.833 20.9667 13.8705 21.15 13.9455C21.3333 14.0205 21.5 14.133 21.65 14.283L22.575 15.208C22.7083 15.358 22.8125 15.5247 22.8875 15.708C22.9625 15.8913 23 16.0747 23 16.258C23 16.4413 22.9667 16.6288 22.9 16.8205C22.8333 17.0122 22.725 17.183 22.575 17.333L17.375 22.533C17.275 22.633 17.1625 22.708 17.0375 22.758C16.9125 22.808 16.7833 22.833 16.65 22.833H15C14.7167 22.833 14.4792 22.7372 14.2875 22.5455C14.0958 22.3538 14 22.1163 14 21.833ZM15.5 21.333H16.45L19.475 18.283L19.025 17.808L18.55 17.358L15.5 20.383V21.333ZM19.025 17.808L18.55 17.358L19.475 18.283L19.025 17.808Z" fill="#E1EAF5"/>
</g>
</svg>
